<?xml version="1.0" encoding="UTF-8" standalone="yes"?><svg xmlns="http://www.w3.org/2000/svg" xmlns:xlink="http://www.w3.org/1999/xlink" height="2102pt" style="width:2866px;height:2102px;" version="1.1" viewBox="0 0 2866 2102" width="2866pt"><defs><filter height="300%" id="f1" width="300%" x="-1" y="-1"><feGaussianBlur result="blurOut" stdDeviation="2.0"/><feColorMatrix in="blurOut" result="blurOut2" type="matrix" values="0 0 0 0 0 0 0 0 0 0 0 0 0 0 0 0 0 0 .4 0"/><feOffset dx="4.0" dy="4.0" in="blurOut2" result="blurOut3"/><feBlend in="SourceGraphic" in2="blurOut3" mode="normal"/></filter></defs><g><rect fill="#FFFFFF" filter="url(#f1)" height="63.832" style="stroke: #A80036; stroke-width: 1.0;" width="10" x="34" y="58.2969"/><rect fill="#FFFFFF" filter="url(#f1)" height="29.1328" style="stroke: #A80036; stroke-width: 1.0;" width="10" x="34" y="1256.0313"/><rect fill="#FFFFFF" filter="url(#f1)" height="746.7188" style="stroke: #A80036; stroke-width: 1.0;" width="10" x="153" y="1285.1641"/><rect fill="#FFFFFF" filter="url(#f1)" height="287.9922" style="stroke: #A80036; stroke-width: 1.0;" width="10" x="284" y="1430.8281"/><rect fill="#FFFFFF" filter="url(#f1)" height="30" style="stroke: #A80036; stroke-width: 1.0;" width="10" x="475" y="1659.6875"/><rect fill="#FFFFFF" filter="url(#f1)" height="29.1328" style="stroke: #A80036; stroke-width: 1.0;" width="10" x="475" y="1747.9531"/><rect fill="#FFFFFF" filter="url(#f1)" height="1133.9023" style="stroke: #A80036; stroke-width: 1.0;" width="10" x="709.5" y="122.1289"/><rect fill="#FFFFFF" filter="url(#f1)" height="895.375" style="stroke: #A80036; stroke-width: 1.0;" width="10" x="940.5" y="331.5234"/><rect fill="#FFFFFF" filter="url(#f1)" height="762.6797" style="stroke: #A80036; stroke-width: 1.0;" width="10" x="1148.5" y="435.0859"/><rect fill="#FFFFFF" filter="url(#f1)" height="34.1328" style="stroke: #A80036; stroke-width: 1.0;" width="10" x="1153.5" y="1060.0391"/><rect fill="#FFFFFF" filter="url(#f1)" height="688.4531" style="stroke: #A80036; stroke-width: 1.0;" width="10" x="1395.5" y="1314.2969"/><rect fill="#FFFFFF" filter="url(#f1)" height="431.6563" style="stroke: #A80036; stroke-width: 1.0;" width="10" x="1400.5" y="1401.6953"/><rect fill="#FFFFFF" filter="url(#f1)" height="558.6875" style="stroke: #A80036; stroke-width: 1.0;" width="10" x="1534" y="464.2188"/><rect fill="#FFFFFF" filter="url(#f1)" height="630.3203" style="stroke: #A80036; stroke-width: 1.0;" width="10" x="1884.5" y="1343.4297"/><rect fill="#FFFFFF" filter="url(#f1)" height="30" style="stroke: #A80036; stroke-width: 1.0;" width="10" x="2063" y="617.7813"/><rect fill="#FFFFFF" filter="url(#f1)" height="30" style="stroke: #A80036; stroke-width: 1.0;" width="10" x="2063" y="884.6406"/><rect fill="#FFFFFF" filter="url(#f1)" height="30" style="stroke: #A80036; stroke-width: 1.0;" width="10" x="2063" y="1530.2578"/><rect fill="#FFFFFF" filter="url(#f1)" height="68.2656" style="stroke: #A80036; stroke-width: 1.0;" width="10" x="2063" y="1862.3516"/><rect fill="#FFFFFF" filter="url(#f1)" height="29.1328" style="stroke: #A80036; stroke-width: 1.0;" width="10" x="2387" y="797.2109"/><rect fill="#FFFFFF" filter="url(#f1)" height="39.1328" style="stroke: #A80036; stroke-width: 1.0;" width="10" x="2387" y="1891.4844"/><rect fill="#FFFFFF" filter="url(#f1)" height="616.9531" style="stroke: #A80036; stroke-width: 1.0;" width="10" x="2573.5" y="405.9531"/><rect fill="#FFFFFF" filter="url(#f1)" height="587.0547" style="stroke: #A80036; stroke-width: 1.0;" width="10" x="2573.5" y="1372.5625"/><rect fill="#FFFFFF" filter="url(#f1)" height="659.4531" style="stroke: #A80036; stroke-width: 1.0;" width="10" x="2727.5" y="1314.2969"/><rect fill="#94B57E" filter="url(#f1)" height="30.2969" style="stroke: #A80036; stroke-width: 1.5;" width="67" x="1365" y="265.2266"/><text fill="#000000" font-family="sans-serif" font-size="14" lengthAdjust="spacingAndGlyphs" textLength="53" x="1372" y="285.2217">Callable</text><rect fill="#99CCFF" filter="url(#f1)" height="30.2969" style="stroke: #A80036; stroke-width: 1.5;" width="150" x="1991" y="339.6563"/><text fill="#000000" font-family="sans-serif" font-size="14" lengthAdjust="spacingAndGlyphs" textLength="136" x="1998" y="359.6514">SharedTaskContext</text><rect fill="#99CCFF" filter="url(#f1)" height="30.2969" style="stroke: #A80036; stroke-width: 1.5;" width="179" x="1798" y="526.4844"/><text fill="#000000" font-family="sans-serif" font-size="14" lengthAdjust="spacingAndGlyphs" textLength="165" x="1805" y="546.4795">AbortableTaskRunnable</text><rect fill="#99CCFF" filter="url(#f1)" height="30.2969" style="stroke: #A80036; stroke-width: 1.5;" width="146" x="2155" y="730.9141"/><text fill="#000000" font-family="sans-serif" font-size="14" lengthAdjust="spacingAndGlyphs" textLength="132" x="2162" y="750.9092">TimeoutGuardTask</text><text fill="#000000" font-family="sans-serif" font-size="14" lengthAdjust="spacingAndGlyphs" textLength="78" x="2787" y="850.3389">guard-&lt;n&gt;</text><ellipse cx="2829" cy="821.3438" fill="#FEFECE" filter="url(#f1)" rx="12" ry="12" style="stroke: #A80036; stroke-width: 2.0;"/><polygon fill="#A80036" points="2825,809.3438,2831,804.3438,2829,809.3438,2831,814.3438,2825,809.3438" style="stroke: #A80036; stroke-width: 1.0;"/><rect fill="#FEFECE" filter="url(#f1)" height="30.2969" style="stroke: #A80036; stroke-width: 1.5;" width="146" x="83" y="1073.1719"/><text fill="#000000" font-family="sans-serif" font-size="14" lengthAdjust="spacingAndGlyphs" textLength="132" x="90" y="1093.167">CompletableFuture</text><text fill="#000000" font-family="sans-serif" font-size="14" lengthAdjust="spacingAndGlyphs" textLength="83" x="2688" y="1163.4639">thread-&lt;n&gt;</text><ellipse cx="2732.5" cy="1134.4688" fill="#FEFECE" filter="url(#f1)" rx="12" ry="12" style="stroke: #A80036; stroke-width: 2.0;"/><polygon fill="#A80036" points="2728.5,1122.4688,2734.5,1117.4688,2732.5,1122.4688,2734.5,1127.4688,2728.5,1122.4688" style="stroke: #A80036; stroke-width: 1.0;"/><rect fill="#99CCFF" filter="url(#f1)" height="30.2969" style="stroke: #A80036; stroke-width: 1.5;" width="108" x="565" y="1463.9609"/><text fill="#000000" font-family="sans-serif" font-size="14" lengthAdjust="spacingAndGlyphs" textLength="94" x="572" y="1483.9561">AbortStrategy</text><rect fill="#FEFECE" filter="url(#f1)" height="30.2969" style="stroke: #A80036; stroke-width: 1.5;" width="146" x="405" y="1593.3906"/><text fill="#000000" font-family="sans-serif" font-size="14" lengthAdjust="spacingAndGlyphs" textLength="132" x="412" y="1613.3857">CompletableFuture</text><line style="stroke: #A80036; stroke-width: 1.0; stroke-dasharray: 5.0,5.0;" x1="39" x2="39" y1="48.2969" y2="2050.0156"/><line style="stroke: #A80036; stroke-width: 1.0; stroke-dasharray: 5.0,5.0;" x1="158" x2="158" y1="1105.8203" y2="2050.0156"/><line style="stroke: #A80036; stroke-width: 1.0; stroke-dasharray: 5.0,5.0;" x1="289" x2="289" y1="48.2969" y2="2050.0156"/><line style="stroke: #A80036; stroke-width: 1.0; stroke-dasharray: 5.0,5.0;" x1="480" x2="480" y1="1626.0391" y2="2050.0156"/><line style="stroke: #A80036; stroke-width: 1.0; stroke-dasharray: 5.0,5.0;" x1="621" x2="621" y1="1496.6094" y2="2050.0156"/><line style="stroke: #A80036; stroke-width: 1.0; stroke-dasharray: 5.0,5.0;" x1="714" x2="714" y1="48.2969" y2="2050.0156"/><line style="stroke: #A80036; stroke-width: 1.0; stroke-dasharray: 5.0,5.0;" x1="945.5" x2="945.5" y1="48.2969" y2="2050.0156"/><line style="stroke: #A80036; stroke-width: 1.0; stroke-dasharray: 5.0,5.0;" x1="1153" x2="1153" y1="48.2969" y2="2050.0156"/><line style="stroke: #A80036; stroke-width: 1.0; stroke-dasharray: 5.0,5.0;" x1="1400" x2="1400" y1="297.875" y2="2050.0156"/><line style="stroke: #A80036; stroke-width: 1.0; stroke-dasharray: 5.0,5.0;" x1="1539" x2="1539" y1="48.2969" y2="2050.0156"/><line style="stroke: #A80036; stroke-width: 1.0; stroke-dasharray: 5.0,5.0;" x1="1889" x2="1889" y1="559.1328" y2="2050.0156"/><line style="stroke: #A80036; stroke-width: 1.0; stroke-dasharray: 5.0,5.0;" x1="2068" x2="2068" y1="372.3047" y2="2050.0156"/><line style="stroke: #A80036; stroke-width: 1.0; stroke-dasharray: 5.0,5.0;" x1="2230" x2="2230" y1="763.5625" y2="2050.0156"/><line style="stroke: #A80036; stroke-width: 1.0; stroke-dasharray: 5.0,5.0;" x1="2392" x2="2392" y1="48.2969" y2="2050.0156"/><line style="stroke: #A80036; stroke-width: 1.0; stroke-dasharray: 5.0,5.0;" x1="2578" x2="2578" y1="48.2969" y2="2050.0156"/><line style="stroke: #A80036; stroke-width: 1.0; stroke-dasharray: 5.0,5.0;" x1="2732" x2="2732" y1="1157.6172" y2="2050.0156"/><line style="stroke: #A80036; stroke-width: 1.0; stroke-dasharray: 5.0,5.0;" x1="2829" x2="2829" y1="844.4922" y2="2050.0156"/><rect fill="#FEFECE" filter="url(#f1)" height="30.2969" style="stroke: #A80036; stroke-width: 1.5;" width="64" x="5" y="13"/><text fill="#000000" font-family="sans-serif" font-size="14" lengthAdjust="spacingAndGlyphs" textLength="50" x="12" y="32.9951">Service</text><rect fill="#FEFECE" filter="url(#f1)" height="30.2969" style="stroke: #A80036; stroke-width: 1.5;" width="64" x="5" y="2048.7031"/><text fill="#000000" font-family="sans-serif" font-size="14" lengthAdjust="spacingAndGlyphs" textLength="50" x="12" y="2068.6982">Service</text><rect fill="#FEFECE" filter="url(#f1)" height="30.2969" style="stroke: #A80036; stroke-width: 1.5;" width="146" x="83" y="2048.7031"/><text fill="#000000" font-family="sans-serif" font-size="14" lengthAdjust="spacingAndGlyphs" textLength="132" x="90" y="2068.6982">CompletableFuture</text><rect fill="#FEFECE" filter="url(#f1)" height="30.2969" style="stroke: #A80036; stroke-width: 1.5;" width="88" x="243" y="13"/><text fill="#000000" font-family="sans-serif" font-size="14" lengthAdjust="spacingAndGlyphs" textLength="74" x="250" y="32.9951">Repository</text><rect fill="#FEFECE" filter="url(#f1)" height="30.2969" style="stroke: #A80036; stroke-width: 1.5;" width="88" x="243" y="2048.7031"/><text fill="#000000" font-family="sans-serif" font-size="14" lengthAdjust="spacingAndGlyphs" textLength="74" x="250" y="2068.6982">Repository</text><rect fill="#FEFECE" filter="url(#f1)" height="30.2969" style="stroke: #A80036; stroke-width: 1.5;" width="146" x="405" y="2048.7031"/><text fill="#000000" font-family="sans-serif" font-size="14" lengthAdjust="spacingAndGlyphs" textLength="132" x="412" y="2068.6982">CompletableFuture</text><rect fill="#99CCFF" filter="url(#f1)" height="30.2969" style="stroke: #A80036; stroke-width: 1.5;" width="108" x="565" y="2048.7031"/><text fill="#000000" font-family="sans-serif" font-size="14" lengthAdjust="spacingAndGlyphs" textLength="94" x="572" y="2068.6982">AbortStrategy</text><rect fill="#94B57E" filter="url(#f1)" height="30.2969" style="stroke: #A80036; stroke-width: 1.5;" width="51" x="687" y="13"/><text fill="#000000" font-family="sans-serif" font-size="14" lengthAdjust="spacingAndGlyphs" textLength="37" x="694" y="32.9951">Proxy</text><rect fill="#94B57E" filter="url(#f1)" height="30.2969" style="stroke: #A80036; stroke-width: 1.5;" width="51" x="687" y="2048.7031"/><text fill="#000000" font-family="sans-serif" font-size="14" lengthAdjust="spacingAndGlyphs" textLength="37" x="694" y="2068.6982">Proxy</text><rect fill="#99CCFF" filter="url(#f1)" height="30.2969" style="stroke: #A80036; stroke-width: 1.5;" width="150" x="868.5" y="13"/><text fill="#000000" font-family="sans-serif" font-size="14" lengthAdjust="spacingAndGlyphs" textLength="136" x="875.5" y="32.9951">DelegatingExecutor</text><rect fill="#99CCFF" filter="url(#f1)" height="30.2969" style="stroke: #A80036; stroke-width: 1.5;" width="150" x="868.5" y="2048.7031"/><text fill="#000000" font-family="sans-serif" font-size="14" lengthAdjust="spacingAndGlyphs" textLength="136" x="875.5" y="2068.6982">DelegatingExecutor</text><rect fill="#94B57E" filter="url(#f1)" height="30.2969" style="stroke: #A80036; stroke-width: 1.5;" width="187" x="1058" y="13"/><text fill="#000000" font-family="sans-serif" font-size="14" lengthAdjust="spacingAndGlyphs" textLength="173" x="1065" y="32.9951">ThreadPoolTaskExecutor</text><rect fill="#94B57E" filter="url(#f1)" height="30.2969" style="stroke: #A80036; stroke-width: 1.5;" width="187" x="1058" y="2048.7031"/><text fill="#000000" font-family="sans-serif" font-size="14" lengthAdjust="spacingAndGlyphs" textLength="173" x="1065" y="2068.6982">ThreadPoolTaskExecutor</text><rect fill="#94B57E" filter="url(#f1)" height="30.2969" style="stroke: #A80036; stroke-width: 1.5;" width="67" x="1365" y="2048.7031"/><text fill="#000000" font-family="sans-serif" font-size="14" lengthAdjust="spacingAndGlyphs" textLength="53" x="1372" y="2068.6982">Callable</text><rect fill="#99CCFF" filter="url(#f1)" height="30.2969" style="stroke: #A80036; stroke-width: 1.5;" width="182" x="1446" y="13"/><text fill="#000000" font-family="sans-serif" font-size="14" lengthAdjust="spacingAndGlyphs" textLength="168" x="1453" y="32.9951">AbortableTaskDecorator</text><rect fill="#99CCFF" filter="url(#f1)" height="30.2969" style="stroke: #A80036; stroke-width: 1.5;" width="182" x="1446" y="2048.7031"/><text fill="#000000" font-family="sans-serif" font-size="14" lengthAdjust="spacingAndGlyphs" textLength="168" x="1453" y="2068.6982">AbortableTaskDecorator</text><rect fill="#99CCFF" filter="url(#f1)" height="30.2969" style="stroke: #A80036; stroke-width: 1.5;" width="179" x="1798" y="2048.7031"/><text fill="#000000" font-family="sans-serif" font-size="14" lengthAdjust="spacingAndGlyphs" textLength="165" x="1805" y="2068.6982">AbortableTaskRunnable</text><rect fill="#99CCFF" filter="url(#f1)" height="30.2969" style="stroke: #A80036; stroke-width: 1.5;" width="150" x="1991" y="2048.7031"/><text fill="#000000" font-family="sans-serif" font-size="14" lengthAdjust="spacingAndGlyphs" textLength="136" x="1998" y="2068.6982">SharedTaskContext</text><rect fill="#99CCFF" filter="url(#f1)" height="30.2969" style="stroke: #A80036; stroke-width: 1.5;" width="146" x="2155" y="2048.7031"/><text fill="#000000" font-family="sans-serif" font-size="14" lengthAdjust="spacingAndGlyphs" textLength="132" x="2162" y="2068.6982">TimeoutGuardTask</text><rect fill="#99CCFF" filter="url(#f1)" height="30.2969" style="stroke: #A80036; stroke-width: 1.5;" width="150" x="2315" y="13"/><text fill="#000000" font-family="sans-serif" font-size="14" lengthAdjust="spacingAndGlyphs" textLength="136" x="2322" y="32.9951">GuardTaskExecutor</text><rect fill="#99CCFF" filter="url(#f1)" height="30.2969" style="stroke: #A80036; stroke-width: 1.5;" width="150" x="2315" y="2048.7031"/><text fill="#000000" font-family="sans-serif" font-size="14" lengthAdjust="spacingAndGlyphs" textLength="136" x="2322" y="2068.6982">GuardTaskExecutor</text><rect fill="#99CCFF" filter="url(#f1)" height="30.2969" style="stroke: #A80036; stroke-width: 1.5;" width="195" x="2479" y="13"/><text fill="#000000" font-family="sans-serif" font-size="14" lengthAdjust="spacingAndGlyphs" textLength="181" x="2486" y="32.9951">SharedTaskContextHolder</text><rect fill="#99CCFF" filter="url(#f1)" height="30.2969" style="stroke: #A80036; stroke-width: 1.5;" width="195" x="2479" y="2048.7031"/><text fill="#000000" font-family="sans-serif" font-size="14" lengthAdjust="spacingAndGlyphs" textLength="181" x="2486" y="2068.6982">SharedTaskContextHolder</text><text fill="#000000" font-family="sans-serif" font-size="14" lengthAdjust="spacingAndGlyphs" textLength="83" x="2688" y="2061.6982">thread-&lt;n&gt;</text><ellipse cx="2732.5" cy="2081" fill="#FEFECE" filter="url(#f1)" rx="12" ry="12" style="stroke: #A80036; stroke-width: 2.0;"/><polygon fill="#A80036" points="2728.5,2069,2734.5,2064,2732.5,2069,2734.5,2074,2728.5,2069" style="stroke: #A80036; stroke-width: 1.0;"/><text fill="#000000" font-family="sans-serif" font-size="14" lengthAdjust="spacingAndGlyphs" textLength="78" x="2787" y="2061.6982">guard-&lt;n&gt;</text><ellipse cx="2829" cy="2081" fill="#FEFECE" filter="url(#f1)" rx="12" ry="12" style="stroke: #A80036; stroke-width: 2.0;"/><polygon fill="#A80036" points="2825,2069,2831,2064,2829,2069,2831,2074,2825,2069" style="stroke: #A80036; stroke-width: 1.0;"/><rect fill="#FFFFFF" filter="url(#f1)" height="63.832" style="stroke: #A80036; stroke-width: 1.0;" width="10" x="34" y="58.2969"/><rect fill="#FFFFFF" filter="url(#f1)" height="29.1328" style="stroke: #A80036; stroke-width: 1.0;" width="10" x="34" y="1256.0313"/><rect fill="#FFFFFF" filter="url(#f1)" height="746.7188" style="stroke: #A80036; stroke-width: 1.0;" width="10" x="153" y="1285.1641"/><rect fill="#FFFFFF" filter="url(#f1)" height="287.9922" style="stroke: #A80036; stroke-width: 1.0;" width="10" x="284" y="1430.8281"/><rect fill="#FFFFFF" filter="url(#f1)" height="30" style="stroke: #A80036; stroke-width: 1.0;" width="10" x="475" y="1659.6875"/><rect fill="#FFFFFF" filter="url(#f1)" height="29.1328" style="stroke: #A80036; stroke-width: 1.0;" width="10" x="475" y="1747.9531"/><rect fill="#FFFFFF" filter="url(#f1)" height="1133.9023" style="stroke: #A80036; stroke-width: 1.0;" width="10" x="709.5" y="122.1289"/><rect fill="#FFFFFF" filter="url(#f1)" height="895.375" style="stroke: #A80036; stroke-width: 1.0;" width="10" x="940.5" y="331.5234"/><rect fill="#FFFFFF" filter="url(#f1)" height="762.6797" style="stroke: #A80036; stroke-width: 1.0;" width="10" x="1148.5" y="435.0859"/><rect fill="#FFFFFF" filter="url(#f1)" height="34.1328" style="stroke: #A80036; stroke-width: 1.0;" width="10" x="1153.5" y="1060.0391"/><rect fill="#FFFFFF" filter="url(#f1)" height="688.4531" style="stroke: #A80036; stroke-width: 1.0;" width="10" x="1395.5" y="1314.2969"/><rect fill="#FFFFFF" filter="url(#f1)" height="431.6563" style="stroke: #A80036; stroke-width: 1.0;" width="10" x="1400.5" y="1401.6953"/><rect fill="#FFFFFF" filter="url(#f1)" height="558.6875" style="stroke: #A80036; stroke-width: 1.0;" width="10" x="1534" y="464.2188"/><rect fill="#FFFFFF" filter="url(#f1)" height="630.3203" style="stroke: #A80036; stroke-width: 1.0;" width="10" x="1884.5" y="1343.4297"/><rect fill="#FFFFFF" filter="url(#f1)" height="30" style="stroke: #A80036; stroke-width: 1.0;" width="10" x="2063" y="617.7813"/><rect fill="#FFFFFF" filter="url(#f1)" height="30" style="stroke: #A80036; stroke-width: 1.0;" width="10" x="2063" y="884.6406"/><rect fill="#FFFFFF" filter="url(#f1)" height="30" style="stroke: #A80036; stroke-width: 1.0;" width="10" x="2063" y="1530.2578"/><rect fill="#FFFFFF" filter="url(#f1)" height="68.2656" style="stroke: #A80036; stroke-width: 1.0;" width="10" x="2063" y="1862.3516"/><rect fill="#FFFFFF" filter="url(#f1)" height="29.1328" style="stroke: #A80036; stroke-width: 1.0;" width="10" x="2387" y="797.2109"/><rect fill="#FFFFFF" filter="url(#f1)" height="39.1328" style="stroke: #A80036; stroke-width: 1.0;" width="10" x="2387" y="1891.4844"/><rect fill="#FFFFFF" filter="url(#f1)" height="616.9531" style="stroke: #A80036; stroke-width: 1.0;" width="10" x="2573.5" y="405.9531"/><rect fill="#FFFFFF" filter="url(#f1)" height="587.0547" style="stroke: #A80036; stroke-width: 1.0;" width="10" x="2573.5" y="1372.5625"/><rect fill="#FFFFFF" filter="url(#f1)" height="659.4531" style="stroke: #A80036; stroke-width: 1.0;" width="10" x="2727.5" y="1314.2969"/><polygon fill="#A80036" points="697.5,118.1289,707.5,122.1289,697.5,126.1289,701.5,122.1289" style="stroke: #A80036; stroke-width: 1.0;"/><line style="stroke: #A80036; stroke-width: 1.0;" x1="39" x2="703.5" y1="122.1289" y2="122.1289"/><text fill="#000000" font-family="sans-serif" font-size="13" lengthAdjust="spacingAndGlyphs" textLength="61" x="46" y="117.1958">getUser()</text><polygon fill="#FBFB77" filter="url(#f1)" points="724,63.2969,724,163.2969,1766,163.2969,1766,73.2969,1756,63.2969,724,63.2969" style="stroke: #A80036; stroke-width: 1.0;"/><line style="stroke: #A80036; stroke-width: 1.0;" x1="1756" x2="1756" y1="63.2969" y2="73.2969"/><line style="stroke: #A80036; stroke-width: 1.0;" x1="1766" x2="1756" y1="73.2969" y2="73.2969"/><text fill="#000000" font-family="sans-serif" font-size="13" lengthAdjust="spacingAndGlyphs" textLength="23" x="730" y="80.3638">The</text><text fill="#000000" font-family="monospaced" font-size="13" lengthAdjust="spacingAndGlyphs" textLength="160" x="757" y="80.3638">Repository#getUser()</text><text fill="#000000" font-family="sans-serif" font-size="13" lengthAdjust="spacingAndGlyphs" textLength="191" x="921" y="80.3638">method is annotation with the</text><text fill="#000000" font-family="monospaced" font-size="13" lengthAdjust="spacingAndGlyphs" textLength="48" x="1116" y="80.3638">@Async</text><text fill="#000000" font-family="sans-serif" font-size="13" lengthAdjust="spacingAndGlyphs" textLength="431" x="1168" y="80.3638">annotation. The annotation may contain the Spring bean name of a</text><text fill="#000000" font-family="monospaced" font-size="13" lengthAdjust="spacingAndGlyphs" textLength="144" x="1603" y="80.3638">ThreadPoolExecutor</text><text fill="#000000" font-family="sans-serif" font-size="13" lengthAdjust="spacingAndGlyphs" textLength="4" x="1747" y="80.3638">.</text><text fill="#000000" font-family="sans-serif" font-size="13" lengthAdjust="spacingAndGlyphs" textLength="368" x="730" y="95.4966">This allows looking up specific executors for specific tasks.</text><text fill="#000000" font-family="sans-serif" font-size="13" lengthAdjust="spacingAndGlyphs" textLength="0" x="734" y="110.6294"/><text fill="#000000" font-family="sans-serif" font-size="13" lengthAdjust="spacingAndGlyphs" textLength="62" x="730" y="125.7622">Each task</text><text fill="#000000" font-family="sans-serif" font-size="13" font-weight="bold" lengthAdjust="spacingAndGlyphs" textLength="37" x="796" y="125.7622">must</text><text fill="#000000" font-family="sans-serif" font-size="13" lengthAdjust="spacingAndGlyphs" textLength="197" x="837" y="125.7622">be configured in order create a</text><text fill="#000000" font-family="monospaced" font-size="13" lengthAdjust="spacingAndGlyphs" textLength="144" x="1038" y="125.7622">DelegatingExecutor</text><text fill="#000000" font-family="sans-serif" font-size="13" lengthAdjust="spacingAndGlyphs" textLength="426" x="1186" y="125.7622">for it. The executor is registered under the configured task's name.</text><text fill="#000000" font-family="sans-serif" font-size="13" lengthAdjust="spacingAndGlyphs" textLength="0" x="734" y="140.895"/><text fill="#000000" font-family="sans-serif" font-size="13" lengthAdjust="spacingAndGlyphs" textLength="129" x="730" y="156.0278">In this sequence the</text><text fill="#000000" font-family="monospaced" font-size="13" lengthAdjust="spacingAndGlyphs" textLength="144" x="863" y="156.0278">DelegatingExecutor</text><text fill="#000000" font-family="sans-serif" font-size="13" lengthAdjust="spacingAndGlyphs" textLength="186" x="1011" y="156.0278">is registered under the name</text><text fill="#000000" font-family="monospaced" font-size="13" lengthAdjust="spacingAndGlyphs" textLength="104" x="1201" y="156.0278">repo.get_user</text><line style="stroke: #A80036; stroke-width: 1.0;" x1="719.5" x2="761.5" y1="219.2266" y2="219.2266"/><line style="stroke: #A80036; stroke-width: 1.0;" x1="761.5" x2="761.5" y1="219.2266" y2="232.2266"/><line style="stroke: #A80036; stroke-width: 1.0;" x1="720.5" x2="761.5" y1="232.2266" y2="232.2266"/><polygon fill="#A80036" points="730.5,228.2266,720.5,232.2266,730.5,236.2266,726.5,232.2266" style="stroke: #A80036; stroke-width: 1.0;"/><text fill="#000000" font-family="sans-serif" font-size="13" lengthAdjust="spacingAndGlyphs" textLength="91" x="726.5" y="214.1606">findExecutor( '</text><text fill="#000000" font-family="monospaced" font-size="13" lengthAdjust="spacingAndGlyphs" textLength="104" x="817.5" y="214.1606">repo.get_user</text><text fill="#000000" font-family="sans-serif" font-size="13" lengthAdjust="spacingAndGlyphs" textLength="12" x="921.5" y="214.1606">' )</text><polygon fill="#A80036" points="1353,282.2266,1363,286.2266,1353,290.2266,1357,286.2266" style="stroke: #A80036; stroke-width: 1.0;"/><line style="stroke: #A80036; stroke-width: 1.0;" x1="719.5" x2="1359" y1="286.2266" y2="286.2266"/><text fill="#000000" font-family="sans-serif" font-size="13" lengthAdjust="spacingAndGlyphs" textLength="25" x="726.5" y="281.2935">new</text><rect fill="#94B57E" filter="url(#f1)" height="30.2969" style="stroke: #A80036; stroke-width: 1.5;" width="67" x="1365" y="265.2266"/><text fill="#000000" font-family="sans-serif" font-size="14" lengthAdjust="spacingAndGlyphs" textLength="53" x="1372" y="285.2217">Callable</text><polygon fill="#A80036" points="928.5,327.5234,938.5,331.5234,928.5,335.5234,932.5,331.5234" style="stroke: #A80036; stroke-width: 1.0;"/><line style="stroke: #A80036; stroke-width: 1.0;" x1="719.5" x2="934.5" y1="331.5234" y2="331.5234"/><text fill="#000000" font-family="sans-serif" font-size="13" lengthAdjust="spacingAndGlyphs" textLength="117" x="726.5" y="326.5903">execute( callable )</text><polygon fill="#A80036" points="1979,356.6563,1989,360.6563,1979,364.6563,1983,360.6563" style="stroke: #A80036; stroke-width: 1.0;"/><line style="stroke: #A80036; stroke-width: 1.0;" x1="950.5" x2="1985" y1="360.6563" y2="360.6563"/><text fill="#000000" font-family="sans-serif" font-size="13" lengthAdjust="spacingAndGlyphs" textLength="112" x="957.5" y="355.7231">new( config, this )</text><rect fill="#99CCFF" filter="url(#f1)" height="30.2969" style="stroke: #A80036; stroke-width: 1.5;" width="150" x="1991" y="339.6563"/><text fill="#000000" font-family="sans-serif" font-size="14" lengthAdjust="spacingAndGlyphs" textLength="136" x="1998" y="359.6514">SharedTaskContext</text><polygon fill="#A80036" points="2561.5,401.9531,2571.5,405.9531,2561.5,409.9531,2565.5,405.9531" style="stroke: #A80036; stroke-width: 1.0;"/><line style="stroke: #A80036; stroke-width: 1.0;" x1="950.5" x2="2567.5" y1="405.9531" y2="405.9531"/><text fill="#000000" font-family="sans-serif" font-size="13" lengthAdjust="spacingAndGlyphs" textLength="190" x="957.5" y="401.02">register( sharedTaskContext )</text><polygon fill="#A80036" points="1136.5,431.0859,1146.5,435.0859,1136.5,439.0859,1140.5,435.0859" style="stroke: #A80036; stroke-width: 1.0;"/><line style="stroke: #A80036; stroke-width: 1.0;" x1="950.5" x2="1142.5" y1="435.0859" y2="435.0859"/><text fill="#000000" font-family="sans-serif" font-size="13" lengthAdjust="spacingAndGlyphs" textLength="117" x="957.5" y="430.1528">execute( callable )</text><polygon fill="#A80036" points="1522,460.2188,1532,464.2188,1522,468.2188,1526,464.2188" style="stroke: #A80036; stroke-width: 1.0;"/><line style="stroke: #A80036; stroke-width: 1.0;" x1="1158.5" x2="1528" y1="464.2188" y2="464.2188"/><text fill="#000000" font-family="sans-serif" font-size="13" lengthAdjust="spacingAndGlyphs" textLength="123" x="1165.5" y="459.2856">decorate( callable )</text><polygon fill="#A80036" points="2561.5,489.3516,2571.5,493.3516,2561.5,497.3516,2565.5,493.3516" style="stroke: #A80036; stroke-width: 1.0;"/><line style="stroke: #A80036; stroke-width: 1.0;" x1="1544" x2="2567.5" y1="493.3516" y2="493.3516"/><text fill="#000000" font-family="sans-serif" font-size="13" lengthAdjust="spacingAndGlyphs" textLength="177" x="1551" y="488.4185">sharedTaskContext = get( )</text><polygon fill="#A80036" points="1786,543.4844,1796,547.4844,1786,551.4844,1790,547.4844" style="stroke: #A80036; stroke-width: 1.0;"/><line style="stroke: #A80036; stroke-width: 1.0;" x1="1544" x2="1792" y1="547.4844" y2="547.4844"/><text fill="#000000" font-family="sans-serif" font-size="13" lengthAdjust="spacingAndGlyphs" textLength="230" x="1551" y="542.5513">new( runnable, sharedTaskContext )</text><rect fill="#99CCFF" filter="url(#f1)" height="30.2969" style="stroke: #A80036; stroke-width: 1.5;" width="179" x="1798" y="526.4844"/><text fill="#000000" font-family="sans-serif" font-size="14" lengthAdjust="spacingAndGlyphs" textLength="165" x="1805" y="546.4795">AbortableTaskRunnable</text><polygon fill="#A80036" points="2051,613.7813,2061,617.7813,2051,621.7813,2055,617.7813" style="stroke: #A80036; stroke-width: 1.0;"/><line style="stroke: #A80036; stroke-width: 1.0;" x1="1544" x2="2057" y1="617.7813" y2="617.7813"/><text fill="#000000" font-family="sans-serif" font-size="13" lengthAdjust="spacingAndGlyphs" textLength="230" x="1551" y="612.8481">registerRemovalStrategy( guarded )</text><polygon fill="#A80036" points="2143,747.9141,2153,751.9141,2143,755.9141,2147,751.9141" style="stroke: #A80036; stroke-width: 1.0;"/><line style="stroke: #A80036; stroke-width: 1.0;" x1="1544" x2="2149" y1="751.9141" y2="751.9141"/><text fill="#000000" font-family="sans-serif" font-size="13" lengthAdjust="spacingAndGlyphs" textLength="166" x="1551" y="746.981">new( sharedTaskContext )</text><rect fill="#99CCFF" filter="url(#f1)" height="30.2969" style="stroke: #A80036; stroke-width: 1.5;" width="146" x="2155" y="730.9141"/><text fill="#000000" font-family="sans-serif" font-size="14" lengthAdjust="spacingAndGlyphs" textLength="132" x="2162" y="750.9092">TimeoutGuardTask</text><polygon fill="#A80036" points="2375,793.2109,2385,797.2109,2375,801.2109,2379,797.2109" style="stroke: #A80036; stroke-width: 1.0;"/><line style="stroke: #A80036; stroke-width: 1.0;" x1="1544" x2="2381" y1="797.2109" y2="797.2109"/><text fill="#000000" font-family="sans-serif" font-size="13" lengthAdjust="spacingAndGlyphs" textLength="334" x="1551" y="792.2778">schedule( guard, sharedTaskContext.getTimeout( ) )</text><polygon fill="#A80036" points="2775,822.3438,2785,826.3438,2775,830.3438,2779,826.3438" style="stroke: #A80036; stroke-width: 1.0;"/><line style="stroke: #A80036; stroke-width: 1.0; stroke-dasharray: 2.0,2.0;" x1="2392" x2="2781" y1="826.3438" y2="826.3438"/><text fill="#000000" font-family="sans-serif" font-size="13" lengthAdjust="spacingAndGlyphs" textLength="25" x="2399" y="821.4106">new</text><text fill="#000000" font-family="sans-serif" font-size="14" lengthAdjust="spacingAndGlyphs" textLength="78" x="2787" y="850.3389">guard-&lt;n&gt;</text><ellipse cx="2829" cy="821.3438" fill="#FEFECE" filter="url(#f1)" rx="12" ry="12" style="stroke: #A80036; stroke-width: 2.0;"/><polygon fill="#A80036" points="2825,809.3438,2831,804.3438,2829,809.3438,2831,814.3438,2825,809.3438" style="stroke: #A80036; stroke-width: 1.0;"/><polygon fill="#A80036" points="2051,880.6406,2061,884.6406,2051,888.6406,2055,884.6406" style="stroke: #A80036; stroke-width: 1.0;"/><line style="stroke: #A80036; stroke-width: 1.0;" x1="1544" x2="2057" y1="884.6406" y2="884.6406"/><text fill="#000000" font-family="sans-serif" font-size="13" lengthAdjust="spacingAndGlyphs" textLength="302" x="1551" y="879.7075">registerRemoveTimeoutGuardStrategy( guard )</text><line style="stroke: #A80036; stroke-width: 1.0;" x1="1158.5" x2="1168.5" y1="993.7734" y2="989.7734"/><line style="stroke: #A80036; stroke-width: 1.0;" x1="1158.5" x2="1168.5" y1="993.7734" y2="997.7734"/><line style="stroke: #A80036; stroke-width: 1.0; stroke-dasharray: 2.0,2.0;" x1="1158.5" x2="1533" y1="993.7734" y2="993.7734"/><text fill="#000000" font-family="sans-serif" font-size="13" lengthAdjust="spacingAndGlyphs" textLength="149" x="1175.5" y="988.8403">abortableTaskRunnable</text><polygon fill="#A80036" points="2566.5,1018.9063,2576.5,1022.9063,2566.5,1026.9063,2570.5,1022.9063" style="stroke: #A80036; stroke-width: 1.0;"/><line style="stroke: #A80036; stroke-width: 1.0;" x1="1539" x2="2572.5" y1="1022.9063" y2="1022.9063"/><text fill="#000000" font-family="sans-serif" font-size="13" lengthAdjust="spacingAndGlyphs" textLength="59" x="1546" y="1017.9731">remove()</text><line style="stroke: #A80036; stroke-width: 1.0;" x1="1158.5" x2="1205.5" y1="1047.1719" y2="1047.1719"/><line style="stroke: #A80036; stroke-width: 1.0;" x1="1205.5" x2="1205.5" y1="1047.1719" y2="1060.1719"/><line style="stroke: #A80036; stroke-width: 1.0;" x1="1164.5" x2="1205.5" y1="1060.1719" y2="1060.1719"/><polygon fill="#A80036" points="1174.5,1056.1719,1164.5,1060.1719,1174.5,1064.1719,1170.5,1060.1719" style="stroke: #A80036; stroke-width: 1.0;"/><text fill="#000000" font-family="sans-serif" font-size="13" lengthAdjust="spacingAndGlyphs" textLength="223" x="1170.5" y="1042.106">enqueue( abortableTaskRunnable )</text><polygon fill="#A80036" points="244,1090.1719,234,1094.1719,244,1098.1719,240,1094.1719" style="stroke: #A80036; stroke-width: 1.0;"/><line style="stroke: #A80036; stroke-width: 1.0;" x1="238" x2="1147.5" y1="1094.1719" y2="1094.1719"/><text fill="#000000" font-family="sans-serif" font-size="13" lengthAdjust="spacingAndGlyphs" textLength="25" x="250" y="1089.2388">new</text><rect fill="#FEFECE" filter="url(#f1)" height="30.2969" style="stroke: #A80036; stroke-width: 1.5;" width="146" x="83" y="1073.1719"/><text fill="#000000" font-family="sans-serif" font-size="14" lengthAdjust="spacingAndGlyphs" textLength="132" x="90" y="1093.167">CompletableFuture</text><polygon fill="#A80036" points="2676,1135.4688,2686,1139.4688,2676,1143.4688,2680,1139.4688" style="stroke: #A80036; stroke-width: 1.0;"/><line style="stroke: #A80036; stroke-width: 1.0; stroke-dasharray: 2.0,2.0;" x1="1158.5" x2="2682" y1="1139.4688" y2="1139.4688"/><text fill="#000000" font-family="sans-serif" font-size="13" lengthAdjust="spacingAndGlyphs" textLength="25" x="1165.5" y="1134.5356">new</text><text fill="#000000" font-family="sans-serif" font-size="14" lengthAdjust="spacingAndGlyphs" textLength="83" x="2688" y="1163.4639">thread-&lt;n&gt;</text><ellipse cx="2732.5" cy="1134.4688" fill="#FEFECE" filter="url(#f1)" rx="12" ry="12" style="stroke: #A80036; stroke-width: 2.0;"/><polygon fill="#A80036" points="2728.5,1122.4688,2734.5,1117.4688,2732.5,1122.4688,2734.5,1127.4688,2728.5,1122.4688" style="stroke: #A80036; stroke-width: 1.0;"/><line style="stroke: #A80036; stroke-width: 1.0;" x1="950.5" x2="960.5" y1="1197.7656" y2="1193.7656"/><line style="stroke: #A80036; stroke-width: 1.0;" x1="950.5" x2="960.5" y1="1197.7656" y2="1201.7656"/><line style="stroke: #A80036; stroke-width: 1.0; stroke-dasharray: 2.0,2.0;" x1="950.5" x2="1152.5" y1="1197.7656" y2="1197.7656"/><text fill="#000000" font-family="sans-serif" font-size="13" lengthAdjust="spacingAndGlyphs" textLength="174" x="967.5" y="1192.8325">CompletableFuture&lt;User&gt;</text><line style="stroke: #A80036; stroke-width: 1.0;" x1="719.5" x2="729.5" y1="1226.8984" y2="1222.8984"/><line style="stroke: #A80036; stroke-width: 1.0;" x1="719.5" x2="729.5" y1="1226.8984" y2="1230.8984"/><line style="stroke: #A80036; stroke-width: 1.0; stroke-dasharray: 2.0,2.0;" x1="719.5" x2="944.5" y1="1226.8984" y2="1226.8984"/><text fill="#000000" font-family="sans-serif" font-size="13" lengthAdjust="spacingAndGlyphs" textLength="174" x="736.5" y="1221.9653">CompletableFuture&lt;User&gt;</text><line style="stroke: #A80036; stroke-width: 1.0;" x1="44" x2="54" y1="1256.0313" y2="1252.0313"/><line style="stroke: #A80036; stroke-width: 1.0;" x1="44" x2="54" y1="1256.0313" y2="1260.0313"/><line style="stroke: #A80036; stroke-width: 1.0; stroke-dasharray: 2.0,2.0;" x1="44" x2="713.5" y1="1256.0313" y2="1256.0313"/><text fill="#000000" font-family="sans-serif" font-size="13" lengthAdjust="spacingAndGlyphs" textLength="174" x="61" y="1251.0981">CompletableFuture&lt;User&gt;</text><polygon fill="#A80036" points="141,1281.1641,151,1285.1641,141,1289.1641,145,1285.1641" style="stroke: #A80036; stroke-width: 1.0;"/><line style="stroke: #A80036; stroke-width: 1.0;" x1="39" x2="147" y1="1285.1641" y2="1285.1641"/><text fill="#000000" font-family="sans-serif" font-size="13" lengthAdjust="spacingAndGlyphs" textLength="31" x="46" y="1280.231">get()</text><polygon fill="#A80036" points="1383.5,1310.2969,1393.5,1314.2969,1383.5,1318.2969,1387.5,1314.2969" style="stroke: #A80036; stroke-width: 1.0;"/><line style="stroke: #A80036; stroke-width: 1.0;" x1="163" x2="1389.5" y1="1314.2969" y2="1314.2969"/><text fill="#000000" font-family="sans-serif" font-size="13" lengthAdjust="spacingAndGlyphs" textLength="31" x="170" y="1309.3638">get()</text><polygon fill="#A80036" points="1905.5,1339.4297,1895.5,1343.4297,1905.5,1347.4297,1901.5,1343.4297" style="stroke: #A80036; stroke-width: 1.0;"/><line style="stroke: #A80036; stroke-width: 1.0;" x1="1899.5" x2="2726.5" y1="1343.4297" y2="1343.4297"/><text fill="#000000" font-family="sans-serif" font-size="13" lengthAdjust="spacingAndGlyphs" textLength="21" x="1911.5" y="1338.4966">run</text><polygon fill="#A80036" points="2561.5,1368.5625,2571.5,1372.5625,2561.5,1376.5625,2565.5,1372.5625" style="stroke: #A80036; stroke-width: 1.0;"/><line style="stroke: #A80036; stroke-width: 1.0;" x1="1894.5" x2="2567.5" y1="1372.5625" y2="1372.5625"/><text fill="#000000" font-family="sans-serif" font-size="13" lengthAdjust="spacingAndGlyphs" textLength="190" x="1901.5" y="1367.6294">register( sharedTaskContext )</text><polygon fill="#A80036" points="1421.5,1397.6953,1411.5,1401.6953,1421.5,1405.6953,1417.5,1401.6953" style="stroke: #A80036; stroke-width: 1.0;"/><line style="stroke: #A80036; stroke-width: 1.0;" x1="1415.5" x2="1883.5" y1="1401.6953" y2="1401.6953"/><text fill="#000000" font-family="sans-serif" font-size="13" lengthAdjust="spacingAndGlyphs" textLength="21" x="1427.5" y="1396.7622">run</text><polygon fill="#A80036" points="305,1426.8281,295,1430.8281,305,1434.8281,301,1430.8281" style="stroke: #A80036; stroke-width: 1.0;"/><line style="stroke: #A80036; stroke-width: 1.0;" x1="299" x2="1399.5" y1="1430.8281" y2="1430.8281"/><text fill="#000000" font-family="sans-serif" font-size="13" lengthAdjust="spacingAndGlyphs" textLength="61" x="311" y="1425.895">getUser()</text><polygon fill="#A80036" points="553,1480.9609,563,1484.9609,553,1488.9609,557,1484.9609" style="stroke: #A80036; stroke-width: 1.0;"/><line style="stroke: #A80036; stroke-width: 1.0;" x1="294" x2="559" y1="1484.9609" y2="1484.9609"/><text fill="#000000" font-family="sans-serif" font-size="13" lengthAdjust="spacingAndGlyphs" textLength="25" x="301" y="1480.0278">new</text><rect fill="#99CCFF" filter="url(#f1)" height="30.2969" style="stroke: #A80036; stroke-width: 1.5;" width="108" x="565" y="1463.9609"/><text fill="#000000" font-family="sans-serif" font-size="14" lengthAdjust="spacingAndGlyphs" textLength="94" x="572" y="1483.9561">AbortStrategy</text><polygon fill="#A80036" points="2051,1526.2578,2061,1530.2578,2051,1534.2578,2055,1530.2578" style="stroke: #A80036; stroke-width: 1.0;"/><line style="stroke: #A80036; stroke-width: 1.0;" x1="294" x2="2057" y1="1530.2578" y2="1530.2578"/><text fill="#000000" font-family="sans-serif" font-size="13" lengthAdjust="spacingAndGlyphs" textLength="169" x="301" y="1525.3247">registerAbortStrategy( ... )</text><polygon fill="#A80036" points="393,1610.3906,403,1614.3906,393,1618.3906,397,1614.3906" style="stroke: #A80036; stroke-width: 1.0;"/><line style="stroke: #A80036; stroke-width: 1.0;" x1="294" x2="399" y1="1614.3906" y2="1614.3906"/><text fill="#000000" font-family="sans-serif" font-size="13" lengthAdjust="spacingAndGlyphs" textLength="25" x="301" y="1609.4575">new</text><rect fill="#FEFECE" filter="url(#f1)" height="30.2969" style="stroke: #A80036; stroke-width: 1.5;" width="146" x="405" y="1593.3906"/><text fill="#000000" font-family="sans-serif" font-size="14" lengthAdjust="spacingAndGlyphs" textLength="132" x="412" y="1613.3857">CompletableFuture</text><polygon fill="#A80036" points="463,1655.6875,473,1659.6875,463,1663.6875,467,1659.6875" style="stroke: #A80036; stroke-width: 1.0;"/><line style="stroke: #A80036; stroke-width: 1.0;" x1="294" x2="469" y1="1659.6875" y2="1659.6875"/><text fill="#000000" font-family="sans-serif" font-size="13" lengthAdjust="spacingAndGlyphs" textLength="157" x="301" y="1654.7544">completedFuture( User )</text><line style="stroke: #A80036; stroke-width: 1.0;" x1="1398.5" x2="1388.5" y1="1718.8203" y2="1714.8203"/><line style="stroke: #A80036; stroke-width: 1.0;" x1="1398.5" x2="1388.5" y1="1718.8203" y2="1722.8203"/><line style="stroke: #A80036; stroke-width: 1.0; stroke-dasharray: 2.0,2.0;" x1="289" x2="1399.5" y1="1718.8203" y2="1718.8203"/><text fill="#000000" font-family="sans-serif" font-size="13" lengthAdjust="spacingAndGlyphs" textLength="174" x="296" y="1713.8872">CompletableFuture&lt;User&gt;</text><polygon fill="#A80036" points="496,1743.9531,486,1747.9531,496,1751.9531,492,1747.9531" style="stroke: #A80036; stroke-width: 1.0;"/><line style="stroke: #A80036; stroke-width: 1.0;" x1="490" x2="1399.5" y1="1747.9531" y2="1747.9531"/><text fill="#000000" font-family="sans-serif" font-size="13" lengthAdjust="spacingAndGlyphs" textLength="35" x="502" y="1743.02">get( )</text><line style="stroke: #A80036; stroke-width: 1.0;" x1="1398.5" x2="1388.5" y1="1777.0859" y2="1773.0859"/><line style="stroke: #A80036; stroke-width: 1.0;" x1="1398.5" x2="1388.5" y1="1777.0859" y2="1781.0859"/><line style="stroke: #A80036; stroke-width: 1.0; stroke-dasharray: 2.0,2.0;" x1="480" x2="1399.5" y1="1777.0859" y2="1777.0859"/><text fill="#000000" font-family="sans-serif" font-size="13" lengthAdjust="spacingAndGlyphs" textLength="30" x="487" y="1772.1528">User</text><line style="stroke: #A80036; stroke-width: 2.0;" x1="471" x2="489" y1="1768.0859" y2="1786.0859"/><line style="stroke: #A80036; stroke-width: 2.0;" x1="471" x2="489" y1="1786.0859" y2="1768.0859"/><line style="stroke: #A80036; stroke-width: 1.0;" x1="1410.5" x2="1452.5" y1="1806.3516" y2="1806.3516"/><line style="stroke: #A80036; stroke-width: 1.0;" x1="1452.5" x2="1452.5" y1="1806.3516" y2="1819.3516"/><line style="stroke: #A80036; stroke-width: 1.0;" x1="1411.5" x2="1452.5" y1="1819.3516" y2="1819.3516"/><polygon fill="#A80036" points="1421.5,1815.3516,1411.5,1819.3516,1421.5,1823.3516,1417.5,1819.3516" style="stroke: #A80036; stroke-width: 1.0;"/><text fill="#000000" font-family="sans-serif" font-size="13" lengthAdjust="spacingAndGlyphs" textLength="68" x="1417.5" y="1801.2856">set( User )</text><line style="stroke: #A80036; stroke-width: 1.0;" x1="1882.5" x2="1872.5" y1="1833.3516" y2="1829.3516"/><line style="stroke: #A80036; stroke-width: 1.0;" x1="1882.5" x2="1872.5" y1="1833.3516" y2="1837.3516"/><line style="stroke: #A80036; stroke-width: 1.0; stroke-dasharray: 2.0,2.0;" x1="1405.5" x2="1883.5" y1="1833.3516" y2="1833.3516"/><polygon fill="#A80036" points="2051,1858.3516,2061,1862.3516,2051,1866.3516,2055,1862.3516" style="stroke: #A80036; stroke-width: 1.0;"/><line style="stroke: #A80036; stroke-width: 1.0;" x1="1894.5" x2="2057" y1="1862.3516" y2="1862.3516"/><text fill="#000000" font-family="sans-serif" font-size="13" lengthAdjust="spacingAndGlyphs" textLength="43" x="1901.5" y="1857.4185">finish()</text><polygon fill="#A80036" points="2375,1887.4844,2385,1891.4844,2375,1895.4844,2379,1891.4844" style="stroke: #A80036; stroke-width: 1.0;"/><line style="stroke: #A80036; stroke-width: 1.0;" x1="2073" x2="2381" y1="1891.4844" y2="1891.4844"/><text fill="#000000" font-family="sans-serif" font-size="13" lengthAdjust="spacingAndGlyphs" textLength="187" x="2080" y="1886.5513">remove( TimeoutGuardTask )</text><line style="stroke: #A80036; stroke-width: 1.0;" x1="2230" x2="2240" y1="1930.6172" y2="1926.6172"/><line style="stroke: #A80036; stroke-width: 1.0;" x1="2230" x2="2240" y1="1930.6172" y2="1934.6172"/><line style="stroke: #A80036; stroke-width: 1.0;" x1="2230" x2="2391" y1="1930.6172" y2="1930.6172"/><line style="stroke: #A80036; stroke-width: 2.0;" x1="2221" x2="2239" y1="1921.6172" y2="1939.6172"/><line style="stroke: #A80036; stroke-width: 2.0;" x1="2221" x2="2239" y1="1939.6172" y2="1921.6172"/><polygon fill="#A80036" points="2566.5,1955.6172,2576.5,1959.6172,2566.5,1963.6172,2570.5,1959.6172" style="stroke: #A80036; stroke-width: 1.0;"/><line style="stroke: #A80036; stroke-width: 1.0;" x1="1894.5" x2="2572.5" y1="1959.6172" y2="1959.6172"/><text fill="#000000" font-family="sans-serif" font-size="13" lengthAdjust="spacingAndGlyphs" textLength="59" x="1901.5" y="1954.6841">remove()</text><line style="stroke: #A80036; stroke-width: 1.0;" x1="2730.5" x2="2720.5" y1="1973.75" y2="1969.75"/><line style="stroke: #A80036; stroke-width: 1.0;" x1="2730.5" x2="2720.5" y1="1973.75" y2="1977.75"/><line style="stroke: #A80036; stroke-width: 1.0; stroke-dasharray: 2.0,2.0;" x1="1889.5" x2="2731.5" y1="1973.75" y2="1973.75"/><line style="stroke: #A80036; stroke-width: 1.0;" x1="163" x2="173" y1="2002.75" y2="1998.75"/><line style="stroke: #A80036; stroke-width: 1.0;" x1="163" x2="173" y1="2002.75" y2="2006.75"/><line style="stroke: #A80036; stroke-width: 1.0; stroke-dasharray: 2.0,2.0;" x1="163" x2="1399.5" y1="2002.75" y2="2002.75"/><text fill="#000000" font-family="sans-serif" font-size="13" lengthAdjust="spacingAndGlyphs" textLength="30" x="180" y="1997.8169">User</text><line style="stroke: #A80036; stroke-width: 1.0;" x1="39" x2="49" y1="2031.8828" y2="2027.8828"/><line style="stroke: #A80036; stroke-width: 1.0;" x1="39" x2="49" y1="2031.8828" y2="2035.8828"/><line style="stroke: #A80036; stroke-width: 1.0; stroke-dasharray: 2.0,2.0;" x1="39" x2="157" y1="2031.8828" y2="2031.8828"/><text fill="#000000" font-family="sans-serif" font-size="13" lengthAdjust="spacingAndGlyphs" textLength="30" x="56" y="2026.9497">User</text></g></svg>